<svg class="diagram-root" style="background: #f5f6f6" xmlns="http://www.w3.org/2000/svg" xmlns:xlink="http://www.w3.org/1999/xlink"><style>.diagram-root { font-family: "Helvetica Neue", sans-serif; font-size: 12px; } .t { overflow: visible; } .t-bg { y: 40; fill: #fff;   } .th { fill: #005aa0;   } .tht { fill: #fff; font-size: 14px;  } .tf { fill: #323c46; overflow: visible; } .tf.pk { fill: #005aa0; font-weight: bold; } .tf.fk { font-weight: bold; } .ty { fill: #adb1b5; font-weight: normal; text-anchor: end; } .r { fill: transparent; stroke: #c3c3c3; stroke-width: 1; } .l { stroke: 1; } .i { fill: #c2c7ce; stroke: #c2c7ce; } .i.ix { fill: #afb3b6; stroke: #000; } .fa { fill: transparent; overflow: visible; } .fa .bg.hover { fill: #f7f7f7; } .c { cy: 12; r: 4; stroke: #d2d2dc; fill: #d2d2dc; } .hr { fill: transparent; stroke: #323c46; stroke-opacity: 0.035; stroke-width: 13; } .dc { stroke: #fa5a3c; fill: #fa5a3c; } .x { stroke: white; stroke-width: 1; } .hl .th { fill: #1b9bff; } .hl .tht {  } .fhl .bg { fill: #e7f4ff; } .fhls .bg {  } .r.hl { stroke: #1b9bff; } .dim { opacity: 0.25; }</style><g class="drawing-wrapper" transform="translate(43.70846153846154, 84.12230769230767) scale(1,1)"><g class="rs"><path d="M 155.1 2.8800000000000026 m -1, 0 a 1,1 0 1,0 2,0 a 1,1 0 1,0 -2,0 M 155.1 2.8800000000000026 m -0.5, 0 a 0.5,0.5 0 1,0 1,0 a 0.5,0.5 0 1,0 -1,0  M155.1 2.8800000000000026 L155.1 2.8800000000000026 167.1 2.8800000000000026 M 155.1 8.880000000000003 m -1, 0 a 1,1 0 1,0 2,0 a 1,1 0 1,0 -2,0 M 155.1 8.880000000000003 m -0.5, 0 a 0.5,0.5 0 1,0 1,0 a 0.5,0.5 0 1,0 -1,0  M155.1 8.880000000000003 L155.1 8.880000000000003 162.1 2.8800000000000026 155.1 -3.1199999999999974 M 155.1 -3.1199999999999974 m -1, 0 a 1,1 0 1,0 2,0 a 1,1 0 1,0 -2,0 M 155.1 -3.1199999999999974 m -0.5, 0 a 0.5,0.5 0 1,0 1,0 a 0.5,0.5 0 1,0 -1,0  M167.1 2.8800000000000026 C 584.908 2.8800000000000026, 446.98 37.34, 396.98 37.34 M 384.98 37.34 m -1, 0 a 1,1 0 1,0 2,0 a 1,1 0 1,0 -2,0 M 384.98 37.34 m -0.5, 0 a 0.5,0.5 0 1,0 1,0 a 0.5,0.5 0 1,0 -1,0  M384.98 37.34 L384.98 37.34 396.98 37.34 M390.98 43.34 L390.98 43.34 390.98 31.340000000000003" id="h3572062790" class="r"></path><path d="M 155.1 27.880000000000003 m -1, 0 a 1,1 0 1,0 2,0 a 1,1 0 1,0 -2,0 M 155.1 27.880000000000003 m -0.5, 0 a 0.5,0.5 0 1,0 1,0 a 0.5,0.5 0 1,0 -1,0  M155.1 27.880000000000003 L155.1 27.880000000000003 167.1 27.880000000000003 M 155.1 33.88 m -1, 0 a 1,1 0 1,0 2,0 a 1,1 0 1,0 -2,0 M 155.1 33.88 m -0.5, 0 a 0.5,0.5 0 1,0 1,0 a 0.5,0.5 0 1,0 -1,0  M155.1 33.88 L155.1 33.88 162.1 27.880000000000003 155.1 21.880000000000003 M 155.1 21.880000000000003 m -1, 0 a 1,1 0 1,0 2,0 a 1,1 0 1,0 -2,0 M 155.1 21.880000000000003 m -0.5, 0 a 0.5,0.5 0 1,0 1,0 a 0.5,0.5 0 1,0 -1,0  M167.1 27.880000000000003 C 584.908 27.880000000000003, 446.98 37.34, 396.98 37.34 M 384.98 37.34 m -1, 0 a 1,1 0 1,0 2,0 a 1,1 0 1,0 -2,0 M 384.98 37.34 m -0.5, 0 a 0.5,0.5 0 1,0 1,0 a 0.5,0.5 0 1,0 -1,0  M384.98 37.34 L384.98 37.34 396.98 37.34 M390.98 43.34 L390.98 43.34 390.98 31.340000000000003" id="h2503453134" class="r"></path><path d="M 237.81 37.34 m -1, 0 a 1,1 0 1,0 2,0 a 1,1 0 1,0 -2,0 M 237.81 37.34 m -0.5, 0 a 0.5,0.5 0 1,0 1,0 a 0.5,0.5 0 1,0 -1,0  M237.81 37.34 L237.81 37.34 225.81 37.34 M 237.81 43.34 m -1, 0 a 1,1 0 1,0 2,0 a 1,1 0 1,0 -2,0 M 237.81 43.34 m -0.5, 0 a 0.5,0.5 0 1,0 1,0 a 0.5,0.5 0 1,0 -1,0  M237.81 43.34 L237.81 43.34 230.81 37.34 237.81 31.340000000000003 M 237.81 31.340000000000003 m -1, 0 a 1,1 0 1,0 2,0 a 1,1 0 1,0 -2,0 M 237.81 31.340000000000003 m -0.5, 0 a 0.5,0.5 0 1,0 1,0 a 0.5,0.5 0 1,0 -1,0  M225.81 37.34 C 175.81 37.34, 101.99799999999999 189.48, 348.83 189.48 M 360.83 189.48 m -1, 0 a 1,1 0 1,0 2,0 a 1,1 0 1,0 -2,0 M 360.83 189.48 m -0.5, 0 a 0.5,0.5 0 1,0 1,0 a 0.5,0.5 0 1,0 -1,0  M360.83 189.48 L360.83 189.48 348.83 189.48 M354.83 195.48 L354.83 195.48 354.83 183.48" id="h3228762923" class="r"></path><path d="M 360.83 214.48 m -1, 0 a 1,1 0 1,0 2,0 a 1,1 0 1,0 -2,0 M 360.83 214.48 m -0.5, 0 a 0.5,0.5 0 1,0 1,0 a 0.5,0.5 0 1,0 -1,0  M360.83 214.48 L360.83 214.48 348.83 214.48 M 360.83 220.48 m -1, 0 a 1,1 0 1,0 2,0 a 1,1 0 1,0 -2,0 M 360.83 220.48 m -0.5, 0 a 0.5,0.5 0 1,0 1,0 a 0.5,0.5 0 1,0 -1,0  M360.83 220.48 L360.83 220.48 353.83 214.48 360.83 208.48 M 360.83 208.48 m -1, 0 a 1,1 0 1,0 2,0 a 1,1 0 1,0 -2,0 M 360.83 208.48 m -0.5, 0 a 0.5,0.5 0 1,0 1,0 a 0.5,0.5 0 1,0 -1,0  M348.83 214.48 Q 301.32 214.48, 253.81 178.74 T 158.79 143 M 146.79 143 m -1, 0 a 1,1 0 1,0 2,0 a 1,1 0 1,0 -2,0 M 146.79 143 m -0.5, 0 a 0.5,0.5 0 1,0 1,0 a 0.5,0.5 0 1,0 -1,0  M146.79 143 L146.79 143 158.79 143 M152.79 149 L152.79 149 152.79 137" id="h3728003642" class="r"></path><path d="M 146.79 168 m -1, 0 a 1,1 0 1,0 2,0 a 1,1 0 1,0 -2,0 M 146.79 168 m -0.5, 0 a 0.5,0.5 0 1,0 1,0 a 0.5,0.5 0 1,0 -1,0  M146.79 168 L146.79 168 158.79 168 M 146.79 174 m -1, 0 a 1,1 0 1,0 2,0 a 1,1 0 1,0 -2,0 M 146.79 174 m -0.5, 0 a 0.5,0.5 0 1,0 1,0 a 0.5,0.5 0 1,0 -1,0  M146.79 174 L146.79 174 153.79 168 146.79 162 M 146.79 162 m -1, 0 a 1,1 0 1,0 2,0 a 1,1 0 1,0 -2,0 M 146.79 162 m -0.5, 0 a 0.5,0.5 0 1,0 1,0 a 0.5,0.5 0 1,0 -1,0  M158.79 168 Q 174.31 168, 189.83 259.32 T 220.86 350.63 M 232.86 350.63 m -1, 0 a 1,1 0 1,0 2,0 a 1,1 0 1,0 -2,0 M 232.86 350.63 m -0.5, 0 a 0.5,0.5 0 1,0 1,0 a 0.5,0.5 0 1,0 -1,0  M232.86 350.63 L232.86 350.63 220.86 350.63 M226.86 356.63 L226.86 356.63 226.86 344.63" id="h1995663529" class="r"></path></g><g class="hrs"></g><g class="ts"><svg width="147.17" height="100" x="360.83" y="132.48" id="h1676682957" class="t"><rect height="40" width="147.17" class="th"></rect><text x="13" y="25" class="tht">dept_manager</text><rect height="60" width="147.17" class="t-bg" y="40"></rect><text x="13" y="61" class="tf fk">dept_no<tspan x="134.17" class="ty">VARCHAR</tspan></text><text x="13" y="86" class="tf fk">emp_no<tspan x="134.17" class="ty">INTEGER</tspan></text></svg><svg width="168.5" height="225" x="-21.71" y="86" id="h2075019312" class="t"><rect height="40" width="168.5" class="th"></rect><text x="13" y="25" class="tht">employee</text><rect height="185" width="168.5" class="t-bg" y="40"></rect><text x="13" y="61" class="tf fk">emp_no<tspan x="155.5" class="ty">INTEGER</tspan></text><text x="13" y="86" class="tf fk">emp_title_id<tspan x="155.5" class="ty">VARCHAR</tspan></text><text x="13" y="111" class="tf">birth_date<tspan x="155.5" class="ty">DATE</tspan></text><text x="13" y="136" class="tf">first_name<tspan x="155.5" class="ty">VARCHAR</tspan></text><text x="13" y="161" class="tf">last_name<tspan x="155.5" class="ty">VARCHAR</tspan></text><text x="13" y="186" class="tf">sex<tspan x="155.5" class="ty">VARCHAR</tspan></text><text x="13" y="211" class="tf">hire_date<tspan x="155.5" class="ty">DATE</tspan></text></svg><svg width="142.7" height="100" x="190.37" y="86.16" id="h2472833127" class="t"><rect height="40" width="142.7" class="th"></rect><text x="13" y="25" class="tht">salaries</text><rect height="60" width="142.7" class="t-bg" y="40"></rect><text x="13" y="61" class="tf">emp_no<tspan x="129.7" class="ty">INTEGER</tspan></text><text x="13" y="86" class="tf">salary<tspan x="129.7" class="ty">INTEGER</tspan></text></svg><svg width="138.48" height="100" x="232.86" y="293.63" id="h311790747" class="t"><rect height="40" width="138.48" class="th"></rect><text x="13" y="25" class="tht">titles</text><rect height="60" width="138.48" class="t-bg" y="40"></rect><text x="13" y="61" class="tf fk">title_id<tspan x="125.47999999999999" class="ty">VARCHAR</tspan></text><text x="13" y="86" class="tf">title<tspan x="125.47999999999999" class="ty">VARCHAR</tspan></text></svg><svg width="147.17" height="100" x="237.81" y="-44.66" id="h1090417462" class="t"><rect height="40" width="147.17" class="th"></rect><text x="13" y="25" class="tht">dept_emp</text><rect height="60" width="147.17" class="t-bg" y="40"></rect><text x="13" y="61" class="tf">emp_no<tspan x="134.17" class="ty">INTEGER</tspan></text><text x="13" y="86" class="tf fk">dept_no<tspan x="134.17" class="ty">VARCHAR</tspan></text></svg><svg width="163.84" height="100" x="-8.74" y="-54.12" id="h475896179" class="t"><rect height="40" width="163.84" class="th"></rect><text x="13" y="25" class="tht">departments</text><rect height="60" width="163.84" class="t-bg" y="40"></rect><text x="13" y="61" class="tf fk">dept_no<tspan x="150.84" class="ty">VARCHAR</tspan></text><text x="13" y="86" class="tf fk">dept_name<tspan x="150.84" class="ty">VARCHAR</tspan></text></svg></g></g><text class="qdbd-link" x="10" y="20">www.quickdatabasediagrams.com</text></svg>